# xmcd
#
# Track frame offsets: 
#        150
#        18902
#        33091
#        56078
#        74712
#        93429
#        107890
#        133949
#        150716
#        166988
#        184869
#        203287
#        216578
#
# Disc length: 3178 seconds
#
# Revision: 0
# Processed by: cddbd v1.5.2PL0 Copyright (c) Steve Scherf et al.
# Submitted via: ExactAudioCopy v1.0b4
#
DISCID=b90c680d
DTITLE=Aki Kumar - Don't Hold Back
DYEAR=2014
DGENRE=Blues
TTITLE0=Judgement Day
TTITLE1=Hoochie Coochie Coo
TTITLE2=Don't Hold Back
TTITLE3=Buzzin'
TTITLE4=Let Me Get Closer
TTITLE5=She Don't Want Me No More
TTITLE6=Drifting Blues
TTITLE7=Blue Baby
TTITLE8=I'll Get You Too
TTITLE9=Wish Me Well
TTITLE10=Freight Train
TTITLE11=Mumbai Express
TTITLE12=Ajeeb Daastaan Hai Yeh
EXTD=
EXTT0=
EXTT1=
EXTT2=
EXTT3=
EXTT4=
EXTT5=
EXTT6=
EXTT7=
EXTT8=
EXTT9=
EXTT10=
EXTT11=
EXTT12=
PLAYORDER=
